<mxfile host="app.diagrams.net" agent="Mozilla/5.0 (X11; Ubuntu; Linux x86_64; rv:143.0) Gecko/20100101 Firefox/143.0" version="28.2.4">
  <diagram name="Página-1" id="UT_l-iig5S8QLGLf5QIV">
    <mxGraphModel grid="1" page="1" gridSize="10" guides="1" tooltips="1" connect="1" arrows="1" fold="1" pageScale="1" pageWidth="827" pageHeight="1169" math="0" shadow="0">
      <root>
        <mxCell id="0" />
        <mxCell id="1" parent="0" />
        <mxCell id="q0xP-dhxm_bbYpdLQjSK-3" style="edgeStyle=orthogonalEdgeStyle;rounded=0;orthogonalLoop=1;jettySize=auto;html=1;exitX=0.5;exitY=1;exitDx=0;exitDy=0;entryX=0.5;entryY=0;entryDx=0;entryDy=0;" edge="1" parent="1" source="q0xP-dhxm_bbYpdLQjSK-1" target="q0xP-dhxm_bbYpdLQjSK-2">
          <mxGeometry relative="1" as="geometry" />
        </mxCell>
        <mxCell id="q0xP-dhxm_bbYpdLQjSK-1" value="Llega a zona parquímetro&lt;br&gt;(Art. 36-XXIII Ley Orgánica)" style="rounded=0;whiteSpace=wrap;html=1;" vertex="1" parent="1">
          <mxGeometry x="300" y="110" width="190" height="70" as="geometry" />
        </mxCell>
        <mxCell id="q0xP-dhxm_bbYpdLQjSK-5" style="edgeStyle=orthogonalEdgeStyle;rounded=0;orthogonalLoop=1;jettySize=auto;html=1;exitX=0.5;exitY=1;exitDx=0;exitDy=0;entryX=0.5;entryY=0;entryDx=0;entryDy=0;" edge="1" parent="1" source="q0xP-dhxm_bbYpdLQjSK-2" target="q0xP-dhxm_bbYpdLQjSK-4">
          <mxGeometry relative="1" as="geometry" />
        </mxCell>
        <mxCell id="q0xP-dhxm_bbYpdLQjSK-2" value="Busca cajón de estacionamiento marcado" style="rounded=0;whiteSpace=wrap;html=1;" vertex="1" parent="1">
          <mxGeometry x="300" y="220" width="190" height="70" as="geometry" />
        </mxCell>
        <mxCell id="q0xP-dhxm_bbYpdLQjSK-7" style="edgeStyle=orthogonalEdgeStyle;rounded=0;orthogonalLoop=1;jettySize=auto;html=1;exitX=0.5;exitY=1;exitDx=0;exitDy=0;entryX=0.5;entryY=0;entryDx=0;entryDy=0;" edge="1" parent="1" source="q0xP-dhxm_bbYpdLQjSK-4" target="q0xP-dhxm_bbYpdLQjSK-6">
          <mxGeometry relative="1" as="geometry" />
        </mxCell>
        <mxCell id="q0xP-dhxm_bbYpdLQjSK-4" value="Localiza parquímetro&lt;br&gt;(Art. 36-XXIII: Emplazamiento)" style="rounded=0;whiteSpace=wrap;html=1;" vertex="1" parent="1">
          <mxGeometry x="300" y="330" width="190" height="70" as="geometry" />
        </mxCell>
        <mxCell id="q0xP-dhxm_bbYpdLQjSK-11" style="edgeStyle=orthogonalEdgeStyle;rounded=0;orthogonalLoop=1;jettySize=auto;html=1;exitX=0;exitY=0.5;exitDx=0;exitDy=0;entryX=0.5;entryY=0;entryDx=0;entryDy=0;" edge="1" parent="1" source="q0xP-dhxm_bbYpdLQjSK-6" target="q0xP-dhxm_bbYpdLQjSK-9">
          <mxGeometry relative="1" as="geometry" />
        </mxCell>
        <mxCell id="q0xP-dhxm_bbYpdLQjSK-13" value="Efectivo" style="edgeLabel;html=1;align=center;verticalAlign=middle;resizable=0;points=[];" connectable="0" vertex="1" parent="q0xP-dhxm_bbYpdLQjSK-11">
          <mxGeometry x="-0.513" relative="1" as="geometry">
            <mxPoint as="offset" />
          </mxGeometry>
        </mxCell>
        <mxCell id="q0xP-dhxm_bbYpdLQjSK-12" style="edgeStyle=orthogonalEdgeStyle;rounded=0;orthogonalLoop=1;jettySize=auto;html=1;exitX=1;exitY=0.5;exitDx=0;exitDy=0;entryX=0.5;entryY=0;entryDx=0;entryDy=0;" edge="1" parent="1" source="q0xP-dhxm_bbYpdLQjSK-6" target="q0xP-dhxm_bbYpdLQjSK-10">
          <mxGeometry relative="1" as="geometry" />
        </mxCell>
        <mxCell id="q0xP-dhxm_bbYpdLQjSK-14" value="Tarjeta/App" style="edgeLabel;html=1;align=center;verticalAlign=middle;resizable=0;points=[];" connectable="0" vertex="1" parent="q0xP-dhxm_bbYpdLQjSK-12">
          <mxGeometry x="-0.313" y="3" relative="1" as="geometry">
            <mxPoint as="offset" />
          </mxGeometry>
        </mxCell>
        <mxCell id="q0xP-dhxm_bbYpdLQjSK-6" value="Método de pago" style="rhombus;whiteSpace=wrap;html=1;" vertex="1" parent="1">
          <mxGeometry x="335" y="450" width="120" height="120" as="geometry" />
        </mxCell>
        <mxCell id="q0xP-dhxm_bbYpdLQjSK-18" style="edgeStyle=orthogonalEdgeStyle;rounded=0;orthogonalLoop=1;jettySize=auto;html=1;exitX=0.5;exitY=1;exitDx=0;exitDy=0;entryX=0.5;entryY=0;entryDx=0;entryDy=0;" edge="1" parent="1" source="q0xP-dhxm_bbYpdLQjSK-9" target="q0xP-dhxm_bbYpdLQjSK-15">
          <mxGeometry relative="1" as="geometry" />
        </mxCell>
        <mxCell id="q0xP-dhxm_bbYpdLQjSK-9" value="Paga en parquímetro" style="rounded=0;whiteSpace=wrap;html=1;" vertex="1" parent="1">
          <mxGeometry x="110" y="610" width="190" height="70" as="geometry" />
        </mxCell>
        <mxCell id="q0xP-dhxm_bbYpdLQjSK-17" style="edgeStyle=orthogonalEdgeStyle;rounded=0;orthogonalLoop=1;jettySize=auto;html=1;exitX=0.5;exitY=1;exitDx=0;exitDy=0;entryX=0.5;entryY=0;entryDx=0;entryDy=0;" edge="1" parent="1" source="q0xP-dhxm_bbYpdLQjSK-10" target="q0xP-dhxm_bbYpdLQjSK-16">
          <mxGeometry relative="1" as="geometry" />
        </mxCell>
        <mxCell id="q0xP-dhxm_bbYpdLQjSK-10" value="Pago digital&lt;br&gt;(Apps: Blinkay, Parkum, Mueve)" style="rounded=0;whiteSpace=wrap;html=1;" vertex="1" parent="1">
          <mxGeometry x="490" y="610" width="190" height="70" as="geometry" />
        </mxCell>
        <mxCell id="q0xP-dhxm_bbYpdLQjSK-20" style="edgeStyle=orthogonalEdgeStyle;rounded=0;orthogonalLoop=1;jettySize=auto;html=1;exitX=0.5;exitY=1;exitDx=0;exitDy=0;entryX=0.5;entryY=0;entryDx=0;entryDy=0;" edge="1" parent="1" source="q0xP-dhxm_bbYpdLQjSK-15" target="q0xP-dhxm_bbYpdLQjSK-19">
          <mxGeometry relative="1" as="geometry" />
        </mxCell>
        <mxCell id="q0xP-dhxm_bbYpdLQjSK-15" value="Coloca ticket visible" style="rounded=0;whiteSpace=wrap;html=1;" vertex="1" parent="1">
          <mxGeometry x="110" y="730" width="190" height="70" as="geometry" />
        </mxCell>
        <mxCell id="q0xP-dhxm_bbYpdLQjSK-21" style="edgeStyle=orthogonalEdgeStyle;rounded=0;orthogonalLoop=1;jettySize=auto;html=1;exitX=0.5;exitY=1;exitDx=0;exitDy=0;" edge="1" parent="1" source="q0xP-dhxm_bbYpdLQjSK-16" target="q0xP-dhxm_bbYpdLQjSK-19">
          <mxGeometry relative="1" as="geometry" />
        </mxCell>
        <mxCell id="q0xP-dhxm_bbYpdLQjSK-16" value="Confirmación digital" style="rounded=0;whiteSpace=wrap;html=1;" vertex="1" parent="1">
          <mxGeometry x="490" y="730" width="190" height="70" as="geometry" />
        </mxCell>
        <mxCell id="q0xP-dhxm_bbYpdLQjSK-23" style="edgeStyle=orthogonalEdgeStyle;rounded=0;orthogonalLoop=1;jettySize=auto;html=1;exitX=0.5;exitY=1;exitDx=0;exitDy=0;entryX=0.5;entryY=0;entryDx=0;entryDy=0;" edge="1" parent="1" source="q0xP-dhxm_bbYpdLQjSK-19" target="q0xP-dhxm_bbYpdLQjSK-22">
          <mxGeometry relative="1" as="geometry" />
        </mxCell>
        <mxCell id="q0xP-dhxm_bbYpdLQjSK-19" value="Estacionado legalmente" style="rounded=0;whiteSpace=wrap;html=1;" vertex="1" parent="1">
          <mxGeometry x="300" y="910" width="190" height="70" as="geometry" />
        </mxCell>
        <mxCell id="q0xP-dhxm_bbYpdLQjSK-22" value="Retira antes de vencer" style="rounded=0;whiteSpace=wrap;html=1;" vertex="1" parent="1">
          <mxGeometry x="300" y="1030" width="190" height="70" as="geometry" />
        </mxCell>
      </root>
    </mxGraphModel>
  </diagram>
</mxfile>
